<svg xmlns="http://www.w3.org/2000/svg" viewBox="0 0 512 512" role="img" aria-label="MedSBoX brand mark"><defs><linearGradient id="g" x1="0" y1="0" x2="1" y2="1"><stop stop-color="#38bdf8"/><stop offset="1" stop-color="#2563eb"/></linearGradient></defs><circle cx="256" cy="256" r="224" fill="#07111f"/><circle cx="256" cy="256" r="190" fill="url(#g)"/><path d="M256 125c-45 0-82 37-82 82v28h-26c-18 0-32 14-32 32v84c0 18 14 32 32 32h216c18 0 32-14 32-32v-84c0-18-14-32-32-32h-26v-28c0-45-37-82-82-82Zm-45 110v-28c0-25 20-45 45-45s45 20 45 45v28h-90Z" fill="#fff"/><path d="M256 288v70M221 323h70" stroke="#1677d2" stroke-width="24" stroke-linecap="round"/></svg>