<svg xmlns="http://www.w3.org/2000/svg" viewBox="0 0 1024 1024" role="img" aria-label="MedSBoX Pro app icon"><defs><linearGradient id="bg" x1="0" y1="1" x2="1" y2="0"><stop stop-color="#7c2cff"/><stop offset=".48" stop-color="#1768ff"/><stop offset="1" stop-color="#18e4df"/></linearGradient><linearGradient id="glass" x1="0" y1="0" x2="1" y2="1"><stop stop-color="#fff" stop-opacity=".32"/><stop offset=".5" stop-color="#fff" stop-opacity=".08"/><stop offset="1" stop-color="#bffcff" stop-opacity=".22"/></linearGradient><linearGradient id="ring" x1="0" y1="1" x2="1" y2="0"><stop stop-color="#f8b7ff"/><stop offset=".45" stop-color="#fff"/><stop offset="1" stop-color="#7fffff"/></linearGradient><linearGradient id="mark" x1="0" y1="1" x2="1" y2="0"><stop stop-color="#f4d9ff"/><stop offset=".5" stop-color="#fff"/><stop offset="1" stop-color="#d8ffff"/></linearGradient><filter id="glow" x="-50%" y="-50%" width="200%" height="200%"><feGaussianBlur stdDeviation="14" result="b"/><feMerge><feMergeNode in="b"/><feMergeNode in="SourceGraphic"/></feMerge></filter><filter id="soft" x="-30%" y="-30%" width="160%" height="160%"><feGaussianBlur stdDeviation="4"/></filter></defs><rect width="1024" height="1024" rx="230" fill="#050814"/><rect x="34" y="34" width="956" height="956" rx="205" fill="url(#bg)"/><rect x="74" y="74" width="876" height="876" rx="180" fill="url(#glass)" stroke="#d9ffff" stroke-opacity=".48" stroke-width="7"/><circle cx="512" cy="512" r="330" fill="#1165e9" fill-opacity=".3" filter="url(#soft)"/><circle cx="512" cy="512" r="292" fill="none" stroke="url(#ring)" stroke-width="32" filter="url(#glow)"/><circle cx="512" cy="512" r="292" fill="none" stroke="url(#ring)" stroke-width="15"/><g fill="none" stroke="url(#mark)" stroke-width="54" stroke-linecap="round" stroke-linejoin="round" filter="url(#glow)"><path d="M350 690V405c0-45 27-78 63-78 22 0 40 11 58 34l41 54 41-54c18-23 36-34 58-34 36 0 63 33 63 78v285"/><path d="M391 455l121 137 121-137"/><path d="M512 592c-48 26-69 57-69 91 0 42 31 73 69 73s69-31 69-73c0-34-21-65-69-91"/></g><path d="M449 280h126l-63 70z" fill="url(#mark)" filter="url(#glow)"/></svg>